<?xml version="1.0" encoding="UTF-8"?>
<svg xmlns="http://www.w3.org/2000/svg" width="264" height="162" viewBox="0 0 264 162">
    <defs>
        <clipPath id="jagged-edge">
            <path d="M0 0v152l12 10 12-10 12 10 12-10 12 10 12-10 12 10 12-10 12 10 12-10 12 10 12-10 12 10 12-10 12 10 12-10 12 10 12-10 12 10 12-10 12 10 12-10V0z"/>
        </clipPath>
    </defs>
    <g clip-path="url(#jagged-edge)" fill="#eaecf0">
        <path id="background" fill="#fff" d="M0 0h264v162H0"/>
        <path id="logo" d="M253 22c0-8-6-14-14-14s-14 6-14 14 6 14 14 14 14-6 14-14zM226 45v-5h25v5h-25z"/>
        <path id="sidebar" d="M226 163V58h25v106h-25z"/>
        <path id="personal-tools" d="M233 5h26v6h-26V5zM209 5h22v6h-22zM185 5h22v6h-22zM162 5h13v6h-13zM177 5h6v6h-6zM154 5h6v6h-6z" transform="matrix(-1 0 0 1 264 0)"/>
        <g id="search" transform="matrix(-1 0 0 1 264 0)">
            <path id="input" d="M258 16v4h-92v-4h92m1-1h-94v6h94v-6z"/>
            <path id="icon" d="M168 17h2v2h-2z"/>
        </g>
        <path id="article" d="M12 162V29h204v133z"/>
        <path id="border" d="M264 0v162H0V0zm-1 1H1v150.533l11 9.166 12-10 12 10 12-10 12 10 12-10 12 10 12-10 12 10 12-10 12 10 12-10 12 10 12-10 12 10 12-10 12 10 12-10 12 10 12-10 12 10 11-9z"/>
    </g>
</svg>
