<?xml version="1.0" encoding="UTF-8" standalone="no"?>
<svg xmlns="http://www.w3.org/2000/svg" id="svg2" viewBox="0 0 264 162" height="162" width="264">
    <defs id="defs78">
        <clipPath id="jagged-edge">
            <path d="M0 0v152l12 10 12-10 12 10 12-10 12 10 12-10 12 10 12-10 12 10 12-10 12 10 12-10 12 10 12-10 12 10 12-10 12 10 12-10 12 10 12-10 12 10 12-10V0z"/>
        </clipPath>
    </defs>
    <g clip-path="url(#jagged-edge)" id="screenshot">
        <path id="background" d="M263.5 162.25l-263-.5V.5h263z" fill="#fff"/>
        <path id="article" d="M252 162.496V29H48v133.496z" fill="#eaecf0"/>
        <path id="logo" d="M11 22c0-7.732 6.268-14 14-14s14 6.268 14 14-6.268 14-14 14-14-6.268-14-14z" fill="#eaecf0"/>
        <path id="sidebar" d="M38 163.807V58H13v105.807h25z" fill="#eaecf0"/>
        <g id="personal-tools" fill="#eaecf0">
            <path d="M233 5h26v6h-26V5zM209 5h22v6h-22zM185 5h22v6h-22zM162 5h13v6h-13zM177 5h6v6h-6zM154 5h6v6h-6z"/>
        </g>
        <g id="search" fill="#eaecf0">
            <path id="path5717" d="M258 16v4h-92v-4h92m1-1h-94v6h94v-6z"/>
            <path id="icon" d="M168 17h2v2h-2z"/>
        </g>
        <path id="sitename" d="M38 45v-5H13v5h25z" fill="#eaecf0"/>
        <path d="M0 0v162h264V0zm1 1h262v150.533l-11 9.166-12-10-12 10-12-10-12 10-12-10-12 10-12-10-12 10-12-10-12 10-12-10-12 10-12-10-12 10-12-10-12 10-12-10-12 10-12-10-12 10-11-9.167z" id="border" fill="#eaecf0"/>
    </g>
</svg>
