<?xml version="1.0" encoding="UTF-8" standalone="no"?>
<svg xmlns="http://www.w3.org/2000/svg" id="svg2" viewBox="0 0 264 162" height="162" width="264">
    <defs id="defs78">
        <clipPath id="jagged-edge">
            <path d="M0 0v152l12 10 12-10 12 10 12-10 12 10 12-10 12 10 12-10 12 10 12-10 12 10 12-10 12 10 12-10 12 10 12-10 12 10 12-10 12 10 12-10 12 10 12-10V0z"/>
        </clipPath>
    </defs>
    <g clip-path="url(#jagged-edge)" id="screenshot">
        <path id="background" d="M.5 162.25l263-.5V.5H.5z" fill="#fff"/>
        <path id="article" d="M12 162.496V29h204v133.496z" fill="#e5e5e5"/>
        <path id="logo" d="M253 22c0-7.732-6.268-14-14-14s-14 6.268-14 14 6.268 14 14 14 14-6.268 14-14z" fill="#e5e5e5"/>
        <path id="sidebar" d="M226 163.807V58h25v105.807h-25z" fill="#e5e5e5"/>
        <g id="personal-tools" fill="#e5e5e5">
            <path d="M233 5h26v6h-26V5zM209 5h22v6h-22zM185 5h22v6h-22zM162 5h13v6h-13zM177 5h6v6h-6zM154 5h6v6h-6z" transform="matrix(-1 0 0 1 264 0)"/>
        </g>
        <g id="search" fill="#e5e5e5">
            <path id="path5717" d="M258 16v4h-92v-4h92m1-1h-94v6h94v-6z" transform="matrix(-1 0 0 1 264 0)"/>
            <path id="icon" d="M168 17h2v2h-2z" transform="matrix(-1 0 0 1 264 0)"/>
        </g>
        <path id="sitename" d="M226 45v-5h25v5h-25z" fill="#e5e5e5"/>
        <path d="M264 0v162H0V0zm-1 1H1v150.533l11 9.166 12-10 12 10 12-10 12 10 12-10 12 10 12-10 12 10 12-10 12 10 12-10 12 10 12-10 12 10 12-10 12 10 12-10 12 10 12-10 12 10 11-9.167z" id="border" fill="#e5e5e5"/>
    </g>
</svg>
